<svg width="64" height="64" viewBox="0 0 64 64" fill="none" xmlns="http://www.w3.org/2000/svg">
  <!-- Antennas extending above the square -->
  <circle cx="24" cy="6" r="3" fill="#3B82F6"/>
  <circle cx="40" cy="6" r="3" fill="#3B82F6"/>
  <line x1="24" y1="6" x2="24" y2="12" stroke="#3B82F6" stroke-width="2.5" stroke-linecap="round"/>
  <line x1="40" y1="6" x2="40" y2="12" stroke="#3B82F6" stroke-width="2.5" stroke-linecap="round"/>
  
  <!-- Rounded square background (44x44, same as human avatars) - centered with space for antennas/legs -->
  <rect x="10" y="12" width="44" height="44" rx="12" fill="#3B82F6"/>
  
  <!-- Eyes inside the square -->
  <circle cx="24" cy="30" r="3" fill="#FFFFFF"/>
  <circle cx="40" cy="30" r="3" fill="#FFFFFF"/>
  
  <!-- Smiley lips inside the square -->
  <path d="M 24 40 Q 32 44 40 40" stroke="#FFFFFF" stroke-width="3" fill="none" stroke-linecap="round"/>
  
  <!-- Hands extending from sides -->
  <circle cx="4" cy="34" r="4" fill="#3B82F6"/>
  <circle cx="60" cy="34" r="4" fill="#3B82F6"/>
  <line x1="4" y1="34" x2="10" y2="34" stroke="#3B82F6" stroke-width="3" stroke-linecap="round"/>
  <line x1="54" y1="34" x2="60" y2="34" stroke="#3B82F6" stroke-width="3" stroke-linecap="round"/>
  
  <!-- Legs extending below the square -->
  <line x1="24" y1="56" x2="24" y2="60" stroke="#3B82F6" stroke-width="3" stroke-linecap="round"/>
  <line x1="40" y1="56" x2="40" y2="60" stroke="#3B82F6" stroke-width="3" stroke-linecap="round"/>
  <circle cx="24" cy="60" r="3" fill="#3B82F6"/>
  <circle cx="40" cy="60" r="3" fill="#3B82F6"/>
</svg>
